# xmcd
#
# Track frame offsets:
#	150
#	15116
#	27381
#	45206
#	62576
#	78325
#	91332
#	109992
#	127465
#	147433
#	165444
#	184319
#	203927
#	222932
#
# Disc length: 3107 seconds
#
# Revision: 3
# Processed by: cddbd v1.5.2PL0 Copyright (c) Steve Scherf et al.
# Submitted via: audiograbber 1.81.02
#
DISCID=bf0c210e
DTITLE=His Season - See A Change
DYEAR=2007
DGENRE=Gospel
TTITLE0=See A Change
TTITLE1=Living Proof
TTITLE2=Worshipers Agree
TTITLE3=Free From Me
TTITLE4=First Of All
TTITLE5=Stepping Up
TTITLE6=Here I Am To Worship
TTITLE7=Joyful, Joyful
TTITLE8=Who Will Stand
TTITLE9=Come, Now Is The Time To Worship
TTITLE10=For Endless Days
TTITLE11=Love You So Much
TTITLE12=See Your Power
TTITLE13=Softly and Tenderly
EXTD=
EXTT0=
EXTT1=
EXTT2=
EXTT3=
EXTT4=
EXTT5=
EXTT6=
EXTT7=
EXTT8=
EXTT9=
EXTT10=
EXTT11=
EXTT12=
EXTT13=
PLAYORDER=
